<svg xmlns="http://www.w3.org/2000/svg" width="52.628" height="58.326" viewBox="0 0 52.628 58.326">
  <g id="hotel" transform="translate(0 -4)">
    <g id="Grupo_248" data-name="Grupo 248" transform="translate(0 4)">
      <g id="Grupo_247" data-name="Grupo 247" transform="translate(0 0)">
        <path id="Trazado_1609" data-name="Trazado 1609" d="M51.751,12.9H42.1V4.989A.938.938,0,0,0,41.226,4H11.4a.938.938,0,0,0-.877.989v13.84H.877A.938.938,0,0,0,0,19.817V60.349a.938.938,0,0,0,.877.989.938.938,0,0,0,.877-.989V20.806h8.771V61.337a.938.938,0,0,0,.877.989H41.226a.938.938,0,0,0,.877-.989V14.874h8.771V60.349a.883.883,0,1,0,1.754,0V13.886A.938.938,0,0,0,51.751,12.9ZM25.437,60.349H21.928v-8.9h3.509Zm5.263,0H27.191v-8.9H30.7Zm9.649,0H32.454V50.463a.938.938,0,0,0-.877-.989H21.051a.938.938,0,0,0-.877.989v9.886H12.28V5.977H40.348Z" transform="translate(0 -4)" fill="#faad3d"/>
      </g>
    </g>
    <g id="Grupo_250" data-name="Grupo 250" transform="translate(14.034 7.954)">
      <g id="Grupo_249" data-name="Grupo 249">
        <path id="Trazado_1610" data-name="Trazado 1610" d="M134.14,36h-5.263a.938.938,0,0,0-.877.989V42.92a.938.938,0,0,0,.877.989h5.263a.938.938,0,0,0,.877-.989V36.989A.938.938,0,0,0,134.14,36Zm-.877,5.931h-3.509V37.977h3.509Z" transform="translate(-128 -36)" fill="#faad3d"/>
      </g>
    </g>
    <g id="Grupo_252" data-name="Grupo 252" transform="translate(22.806 7.954)">
      <g id="Grupo_251" data-name="Grupo 251">
        <path id="Trazado_1611" data-name="Trazado 1611" d="M214.14,36h-5.263a.938.938,0,0,0-.877.989V42.92a.938.938,0,0,0,.877.989h5.263a.938.938,0,0,0,.877-.989V36.989A.938.938,0,0,0,214.14,36Zm-.877,5.931h-3.509V37.977h3.509Z" transform="translate(-208 -36)" fill="#faad3d"/>
      </g>
    </g>
    <g id="Grupo_254" data-name="Grupo 254" transform="translate(31.577 7.954)">
      <g id="Grupo_253" data-name="Grupo 253">
        <path id="Trazado_1612" data-name="Trazado 1612" d="M294.14,36h-5.263a.938.938,0,0,0-.877.989V42.92a.938.938,0,0,0,.877.989h5.263a.938.938,0,0,0,.877-.989V36.989A.938.938,0,0,0,294.14,36Zm-.877,5.931h-3.509V37.977h3.509Z" transform="translate(-288 -36)" fill="#faad3d"/>
      </g>
    </g>
    <g id="Grupo_256" data-name="Grupo 256" transform="translate(14.034 17.84)">
      <g id="Grupo_255" data-name="Grupo 255">
        <path id="Trazado_1613" data-name="Trazado 1613" d="M134.14,116h-5.263a.938.938,0,0,0-.877.989v5.931a.938.938,0,0,0,.877.989h5.263a.938.938,0,0,0,.877-.989v-5.931A.938.938,0,0,0,134.14,116Zm-.877,5.931h-3.509v-3.954h3.509Z" transform="translate(-128 -116)" fill="#faad3d"/>
      </g>
    </g>
    <g id="Grupo_258" data-name="Grupo 258" transform="translate(22.806 17.84)">
      <g id="Grupo_257" data-name="Grupo 257">
        <path id="Trazado_1614" data-name="Trazado 1614" d="M214.14,116h-5.263a.938.938,0,0,0-.877.989v5.931a.938.938,0,0,0,.877.989h5.263a.938.938,0,0,0,.877-.989v-5.931A.938.938,0,0,0,214.14,116Zm-.877,5.931h-3.509v-3.954h3.509Z" transform="translate(-208 -116)" fill="#faad3d"/>
      </g>
    </g>
    <g id="Grupo_260" data-name="Grupo 260" transform="translate(31.577 17.84)">
      <g id="Grupo_259" data-name="Grupo 259">
        <path id="Trazado_1615" data-name="Trazado 1615" d="M294.14,116h-5.263a.938.938,0,0,0-.877.989v5.931a.938.938,0,0,0,.877.989h5.263a.938.938,0,0,0,.877-.989v-5.931A.938.938,0,0,0,294.14,116Zm-.877,5.931h-3.509v-3.954h3.509Z" transform="translate(-288 -116)" fill="#faad3d"/>
      </g>
    </g>
    <g id="Grupo_262" data-name="Grupo 262" transform="translate(14.034 27.726)">
      <g id="Grupo_261" data-name="Grupo 261">
        <path id="Trazado_1616" data-name="Trazado 1616" d="M134.14,196h-5.263a.938.938,0,0,0-.877.989v5.931a.938.938,0,0,0,.877.989h5.263a.938.938,0,0,0,.877-.989v-5.931A.938.938,0,0,0,134.14,196Zm-.877,5.931h-3.509v-3.954h3.509Z" transform="translate(-128 -196)" fill="#faad3d"/>
      </g>
    </g>
    <g id="Grupo_264" data-name="Grupo 264" transform="translate(22.806 27.726)">
      <g id="Grupo_263" data-name="Grupo 263">
        <path id="Trazado_1617" data-name="Trazado 1617" d="M214.14,196h-5.263a.938.938,0,0,0-.877.989v5.931a.938.938,0,0,0,.877.989h5.263a.938.938,0,0,0,.877-.989v-5.931A.938.938,0,0,0,214.14,196Zm-.877,5.931h-3.509v-3.954h3.509Z" transform="translate(-208 -196)" fill="#faad3d"/>
      </g>
    </g>
    <g id="Grupo_266" data-name="Grupo 266" transform="translate(31.577 27.726)">
      <g id="Grupo_265" data-name="Grupo 265">
        <path id="Trazado_1618" data-name="Trazado 1618" d="M294.14,196h-5.263a.938.938,0,0,0-.877.989v5.931a.938.938,0,0,0,.877.989h5.263a.938.938,0,0,0,.877-.989v-5.931A.938.938,0,0,0,294.14,196Zm-.877,5.931h-3.509v-3.954h3.509Z" transform="translate(-288 -196)" fill="#faad3d"/>
      </g>
    </g>
    <g id="Grupo_268" data-name="Grupo 268" transform="translate(14.034 37.611)">
      <g id="Grupo_267" data-name="Grupo 267">
        <path id="Trazado_1619" data-name="Trazado 1619" d="M134.14,276h-5.263a.938.938,0,0,0-.877.989v5.931a.938.938,0,0,0,.877.989h5.263a.938.938,0,0,0,.877-.989v-5.931A.938.938,0,0,0,134.14,276Zm-.877,5.931h-3.509v-3.954h3.509Z" transform="translate(-128 -276)" fill="#faad3d"/>
      </g>
    </g>
    <g id="Grupo_270" data-name="Grupo 270" transform="translate(22.806 37.611)">
      <g id="Grupo_269" data-name="Grupo 269">
        <path id="Trazado_1620" data-name="Trazado 1620" d="M214.14,276h-5.263a.938.938,0,0,0-.877.989v5.931a.938.938,0,0,0,.877.989h5.263a.938.938,0,0,0,.877-.989v-5.931A.938.938,0,0,0,214.14,276Zm-.877,5.931h-3.509v-3.954h3.509Z" transform="translate(-208 -276)" fill="#faad3d"/>
      </g>
    </g>
    <g id="Grupo_272" data-name="Grupo 272" transform="translate(31.577 37.611)">
      <g id="Grupo_271" data-name="Grupo 271">
        <path id="Trazado_1621" data-name="Trazado 1621" d="M294.14,276h-5.263a.938.938,0,0,0-.877.989v5.931a.938.938,0,0,0,.877.989h5.263a.938.938,0,0,0,.877-.989v-5.931A.938.938,0,0,0,294.14,276Zm-.877,5.931h-3.509v-3.954h3.509Z" transform="translate(-288 -276)" fill="#faad3d"/>
      </g>
    </g>
    <g id="Grupo_274" data-name="Grupo 274" transform="translate(3.509 22.783)">
      <g id="Grupo_273" data-name="Grupo 273">
        <path id="Trazado_1622" data-name="Trazado 1622" d="M33.754,156h-.877a.938.938,0,0,0-.877.989v.989a.938.938,0,0,0,.877.989h.877a.938.938,0,0,0,.877-.989v-.989A.938.938,0,0,0,33.754,156Z" transform="translate(-32 -156)" fill="#faad3d"/>
      </g>
    </g>
    <g id="Grupo_276" data-name="Grupo 276" transform="translate(7.017 22.783)">
      <g id="Grupo_275" data-name="Grupo 275">
        <path id="Trazado_1623" data-name="Trazado 1623" d="M65.754,156h-.877a.938.938,0,0,0-.877.989v.989a.938.938,0,0,0,.877.989h.877a.938.938,0,0,0,.877-.989v-.989A.938.938,0,0,0,65.754,156Z" transform="translate(-64 -156)" fill="#faad3d"/>
      </g>
    </g>
    <g id="Grupo_278" data-name="Grupo 278" transform="translate(3.509 26.737)">
      <g id="Grupo_277" data-name="Grupo 277">
        <path id="Trazado_1624" data-name="Trazado 1624" d="M33.754,188h-.877a.938.938,0,0,0-.877.989v.989a.938.938,0,0,0,.877.989h.877a.938.938,0,0,0,.877-.989v-.989A.938.938,0,0,0,33.754,188Z" transform="translate(-32 -188)" fill="#faad3d"/>
      </g>
    </g>
    <g id="Grupo_280" data-name="Grupo 280" transform="translate(7.017 26.737)">
      <g id="Grupo_279" data-name="Grupo 279">
        <path id="Trazado_1625" data-name="Trazado 1625" d="M65.754,188h-.877a.938.938,0,0,0-.877.989v.989a.938.938,0,0,0,.877.989h.877a.938.938,0,0,0,.877-.989v-.989A.938.938,0,0,0,65.754,188Z" transform="translate(-64 -188)" fill="#faad3d"/>
      </g>
    </g>
    <g id="Grupo_282" data-name="Grupo 282" transform="translate(3.509 30.691)">
      <g id="Grupo_281" data-name="Grupo 281">
        <path id="Trazado_1626" data-name="Trazado 1626" d="M33.754,220h-.877a.938.938,0,0,0-.877.989v.989a.938.938,0,0,0,.877.989h.877a.938.938,0,0,0,.877-.989v-.989A.938.938,0,0,0,33.754,220Z" transform="translate(-32 -220)" fill="#faad3d"/>
      </g>
    </g>
    <g id="Grupo_284" data-name="Grupo 284" transform="translate(7.017 30.691)">
      <g id="Grupo_283" data-name="Grupo 283">
        <path id="Trazado_1627" data-name="Trazado 1627" d="M65.754,220h-.877a.938.938,0,0,0-.877.989v.989a.938.938,0,0,0,.877.989h.877a.938.938,0,0,0,.877-.989v-.989A.938.938,0,0,0,65.754,220Z" transform="translate(-64 -220)" fill="#faad3d"/>
      </g>
    </g>
    <g id="Grupo_286" data-name="Grupo 286" transform="translate(3.509 34.646)">
      <g id="Grupo_285" data-name="Grupo 285">
        <path id="Trazado_1628" data-name="Trazado 1628" d="M33.754,252h-.877a.938.938,0,0,0-.877.989v.989a.938.938,0,0,0,.877.989h.877a.938.938,0,0,0,.877-.989v-.989A.938.938,0,0,0,33.754,252Z" transform="translate(-32 -252)" fill="#faad3d"/>
      </g>
    </g>
    <g id="Grupo_288" data-name="Grupo 288" transform="translate(7.017 34.646)">
      <g id="Grupo_287" data-name="Grupo 287">
        <path id="Trazado_1629" data-name="Trazado 1629" d="M65.754,252h-.877a.938.938,0,0,0-.877.989v.989a.938.938,0,0,0,.877.989h.877a.938.938,0,0,0,.877-.989v-.989A.938.938,0,0,0,65.754,252Z" transform="translate(-64 -252)" fill="#faad3d"/>
      </g>
    </g>
    <g id="Grupo_290" data-name="Grupo 290" transform="translate(3.509 38.6)">
      <g id="Grupo_289" data-name="Grupo 289">
        <path id="Trazado_1630" data-name="Trazado 1630" d="M33.754,284h-.877a.938.938,0,0,0-.877.989v.989a.938.938,0,0,0,.877.989h.877a.938.938,0,0,0,.877-.989v-.989A.938.938,0,0,0,33.754,284Z" transform="translate(-32 -284)" fill="#faad3d"/>
      </g>
    </g>
    <g id="Grupo_292" data-name="Grupo 292" transform="translate(7.017 38.6)">
      <g id="Grupo_291" data-name="Grupo 291">
        <path id="Trazado_1631" data-name="Trazado 1631" d="M65.754,284h-.877a.938.938,0,0,0-.877.989v.989a.938.938,0,0,0,.877.989h.877a.938.938,0,0,0,.877-.989v-.989A.938.938,0,0,0,65.754,284Z" transform="translate(-64 -284)" fill="#faad3d"/>
      </g>
    </g>
    <g id="Grupo_294" data-name="Grupo 294" transform="translate(3.509 42.554)">
      <g id="Grupo_293" data-name="Grupo 293">
        <path id="Trazado_1632" data-name="Trazado 1632" d="M33.754,316h-.877a.938.938,0,0,0-.877.989v.989a.938.938,0,0,0,.877.989h.877a.938.938,0,0,0,.877-.989v-.989A.938.938,0,0,0,33.754,316Z" transform="translate(-32 -316)" fill="#faad3d"/>
      </g>
    </g>
    <g id="Grupo_296" data-name="Grupo 296" transform="translate(7.017 42.554)">
      <g id="Grupo_295" data-name="Grupo 295">
        <path id="Trazado_1633" data-name="Trazado 1633" d="M65.754,316h-.877a.938.938,0,0,0-.877.989v.989a.938.938,0,0,0,.877.989h.877a.938.938,0,0,0,.877-.989v-.989A.938.938,0,0,0,65.754,316Z" transform="translate(-64 -316)" fill="#faad3d"/>
      </g>
    </g>
    <g id="Grupo_298" data-name="Grupo 298" transform="translate(3.509 46.509)">
      <g id="Grupo_297" data-name="Grupo 297">
        <path id="Trazado_1634" data-name="Trazado 1634" d="M33.754,348h-.877a.938.938,0,0,0-.877.989v.989a.938.938,0,0,0,.877.989h.877a.938.938,0,0,0,.877-.989v-.989A.938.938,0,0,0,33.754,348Z" transform="translate(-32 -348)" fill="#faad3d"/>
      </g>
    </g>
    <g id="Grupo_300" data-name="Grupo 300" transform="translate(7.017 46.509)">
      <g id="Grupo_299" data-name="Grupo 299">
        <path id="Trazado_1635" data-name="Trazado 1635" d="M65.754,348h-.877a.938.938,0,0,0-.877.989v.989a.938.938,0,0,0,.877.989h.877a.938.938,0,0,0,.877-.989v-.989A.938.938,0,0,0,65.754,348Z" transform="translate(-64 -348)" fill="#faad3d"/>
      </g>
    </g>
    <g id="Grupo_302" data-name="Grupo 302" transform="translate(3.509 50.463)">
      <g id="Grupo_301" data-name="Grupo 301">
        <path id="Trazado_1636" data-name="Trazado 1636" d="M33.754,380h-.877a.938.938,0,0,0-.877.989v.989a.938.938,0,0,0,.877.989h.877a.938.938,0,0,0,.877-.989v-.989A.938.938,0,0,0,33.754,380Z" transform="translate(-32 -380)" fill="#faad3d"/>
      </g>
    </g>
    <g id="Grupo_304" data-name="Grupo 304" transform="translate(7.017 50.463)">
      <g id="Grupo_303" data-name="Grupo 303">
        <path id="Trazado_1637" data-name="Trazado 1637" d="M65.754,380h-.877a.938.938,0,0,0-.877.989v.989a.938.938,0,0,0,.877.989h.877a.938.938,0,0,0,.877-.989v-.989A.938.938,0,0,0,65.754,380Z" transform="translate(-64 -380)" fill="#faad3d"/>
      </g>
    </g>
    <g id="Grupo_306" data-name="Grupo 306" transform="translate(3.509 54.417)">
      <g id="Grupo_305" data-name="Grupo 305">
        <path id="Trazado_1638" data-name="Trazado 1638" d="M33.754,412h-.877a.938.938,0,0,0-.877.989v.989a.938.938,0,0,0,.877.989h.877a.938.938,0,0,0,.877-.989v-.989A.938.938,0,0,0,33.754,412Z" transform="translate(-32 -412)" fill="#faad3d"/>
      </g>
    </g>
    <g id="Grupo_308" data-name="Grupo 308" transform="translate(7.017 54.417)">
      <g id="Grupo_307" data-name="Grupo 307">
        <path id="Trazado_1639" data-name="Trazado 1639" d="M65.754,412h-.877a.938.938,0,0,0-.877.989v.989a.938.938,0,0,0,.877.989h.877a.938.938,0,0,0,.877-.989v-.989A.938.938,0,0,0,65.754,412Z" transform="translate(-64 -412)" fill="#faad3d"/>
      </g>
    </g>
    <g id="Grupo_310" data-name="Grupo 310" transform="translate(43.857 16.851)">
      <g id="Grupo_309" data-name="Grupo 309" transform="translate(0 0)">
        <path id="Trazado_1640" data-name="Trazado 1640" d="M404.386,108h-3.509a.938.938,0,0,0-.877.989v3.954a.938.938,0,0,0,.877.989h3.509a.938.938,0,0,0,.877-.989v-3.954A.938.938,0,0,0,404.386,108Zm-.877,3.954h-1.754v-1.977h1.754Z" transform="translate(-400 -108)" fill="#faad3d"/>
      </g>
    </g>
    <g id="Grupo_312" data-name="Grupo 312" transform="translate(43.857 24.76)">
      <g id="Grupo_311" data-name="Grupo 311">
        <path id="Trazado_1641" data-name="Trazado 1641" d="M404.386,172h-3.509a.938.938,0,0,0-.877.989v3.954a.938.938,0,0,0,.877.989h3.509a.938.938,0,0,0,.877-.989v-3.954A.938.938,0,0,0,404.386,172Zm-.877,3.954h-1.754v-1.977h1.754Z" transform="translate(-400 -172)" fill="#faad3d"/>
      </g>
    </g>
    <g id="Grupo_314" data-name="Grupo 314" transform="translate(43.857 32.669)">
      <g id="Grupo_313" data-name="Grupo 313">
        <path id="Trazado_1642" data-name="Trazado 1642" d="M404.386,236h-3.509a.938.938,0,0,0-.877.989v3.954a.938.938,0,0,0,.877.989h3.509a.938.938,0,0,0,.877-.989v-3.954A.938.938,0,0,0,404.386,236Zm-.877,3.954h-1.754v-1.977h1.754Z" transform="translate(-400 -236)" fill="#faad3d"/>
      </g>
    </g>
    <g id="Grupo_316" data-name="Grupo 316" transform="translate(43.857 40.577)">
      <g id="Grupo_315" data-name="Grupo 315">
        <path id="Trazado_1643" data-name="Trazado 1643" d="M404.386,300h-3.509a.938.938,0,0,0-.877.989v3.954a.938.938,0,0,0,.877.989h3.509a.938.938,0,0,0,.877-.989v-3.954A.938.938,0,0,0,404.386,300Zm-.877,3.954h-1.754v-1.977h1.754Z" transform="translate(-400 -300)" fill="#faad3d"/>
      </g>
    </g>
    <g id="Grupo_318" data-name="Grupo 318" transform="translate(43.857 48.486)">
      <g id="Grupo_317" data-name="Grupo 317">
        <path id="Trazado_1644" data-name="Trazado 1644" d="M404.386,364h-3.509a.938.938,0,0,0-.877.989v3.954a.938.938,0,0,0,.877.989h3.509a.938.938,0,0,0,.877-.989v-3.954A.938.938,0,0,0,404.386,364Zm-.877,3.954h-1.754v-1.977h1.754Z" transform="translate(-400 -364)" fill="#faad3d"/>
      </g>
    </g>
  </g>
</svg>
