<svg xmlns="http://www.w3.org/2000/svg" width="36.991" height="40.354" viewBox="0 0 36.991 40.354">
  <g id="Grupo_52" data-name="Grupo 52" transform="translate(-152 -143.913)">
    <g id="Grupo_49" data-name="Grupo 49" transform="translate(152 143.913)">
      <path id="Trazado_62" data-name="Trazado 62" d="M188.932,155.245a1.273,1.273,0,0,0-.062-.151,1.773,1.773,0,0,0-.1-.247,1.693,1.693,0,0,0-.116-.155,1.6,1.6,0,0,0-.146-.19,23.533,23.533,0,0,1-.325-.261l-16.814-10.089a1.682,1.682,0,0,0-1.732,0l-16.814,10.089a1.478,1.478,0,0,0-.177.136,1.919,1.919,0,0,0-.158.124,1.769,1.769,0,0,0-.145.188,1.5,1.5,0,0,0-.118.156,1.77,1.77,0,0,0-.1.24,1.688,1.688,0,0,0-.064.16,1.623,1.623,0,0,0-.059.436V172.5a1.682,1.682,0,0,0,.815,1.441l16.814,10.089.018.008.018.013a1.631,1.631,0,0,0,.276.113c.039.013.076.035.116.047a1.655,1.655,0,0,0,.874,0c.04-.012.077-.034.116-.047a1.631,1.631,0,0,0,.276-.113l.019-.013.018-.008,16.814-10.089a1.682,1.682,0,0,0,.815-1.441V155.682A1.643,1.643,0,0,0,188.932,155.245ZM170.5,147.554l5.138,3.084-13.546,8.128-5.138-3.084Zm-1.681,32.06-13.451-8.071V158.652l13.451,8.071Zm1.681-15.8-5.138-3.084L178.9,152.6l5.138,3.084Zm15.133,7.735-13.451,8.071V166.723l13.451-8.071Z" transform="translate(-152 -143.913)" fill="#ffb808"/>
    </g>
  </g>
</svg>
