<svg xmlns="http://www.w3.org/2000/svg" width="8.201" height="15.169" viewBox="0 0 8.201 15.169">
  <g id="Grupo_60" data-name="Grupo 60" transform="translate(-706.884 -932.477)">
    <path id="Trazado_64" data-name="Trazado 64" d="M29.97,0,28,0a3.455,3.455,0,0,0-3.638,3.733V5.455H22.386a.309.309,0,0,0-.309.309V8.258a.309.309,0,0,0,.309.309h1.978V14.86a.309.309,0,0,0,.309.309h2.581a.309.309,0,0,0,.309-.309V8.567h2.313a.309.309,0,0,0,.309-.309V5.764a.31.31,0,0,0-.309-.309H27.563V4c0-.7.167-1.057,1.081-1.057h1.325a.309.309,0,0,0,.309-.309V.312A.309.309,0,0,0,29.97,0Z" transform="translate(684.807 932.477)" fill="#004fb5"/>
  </g>
</svg>
