<svg id="search" xmlns="http://www.w3.org/2000/svg" width="17.004" height="17.004" viewBox="0 0 17.004 17.004">
  <path id="Trazado_1593" data-name="Trazado 1593" d="M3.769,143.952l-.592,2.21-2.163.046a8.517,8.517,0,0,1-.063-7.939h0l1.926.353.844,1.914a5.074,5.074,0,0,0,.048,3.416Z" transform="translate(0 -133.676)" fill="#fbbb00"/>
  <path id="Trazado_1594" data-name="Trazado 1594" d="M269.795,208.176a8.5,8.5,0,0,1-3.031,8.219h0l-2.426-.124-.343-2.143a5.067,5.067,0,0,0,2.18-2.588h-4.546v-3.364h8.167Z" transform="translate(-252.939 -201.262)" fill="#518ef8"/>
  <path id="Trazado_1595" data-name="Trazado 1595" d="M43.32,314.265h0a8.5,8.5,0,0,1-12.812-2.6l2.755-2.255A5.057,5.057,0,0,0,40.551,312Z" transform="translate(-29.496 -299.133)" fill="#28b446"/>
  <path id="Trazado_1596" data-name="Trazado 1596" d="M41.6,1.957,38.848,4.212A5.056,5.056,0,0,0,31.394,6.86l-2.77-2.268h0A8.5,8.5,0,0,1,41.6,1.957Z" transform="translate(-27.673)" fill="#f14336"/>
</svg>
