<svg xmlns="http://www.w3.org/2000/svg" width="32.5" height="26" viewBox="0 0 32.5 26">
  <path id="Trazado_63" data-name="Trazado 63" d="M16.25,19.75a4.875,4.875,0,1,0,4.875,4.875A4.875,4.875,0,0,0,16.25,19.75Zm13-4.875h-3.9a1.447,1.447,0,0,1-1.283-.925l-1.008-3.025A1.448,1.448,0,0,0,21.775,10H10.725a1.447,1.447,0,0,0-1.283.925L8.433,13.95a1.448,1.448,0,0,1-1.283.925H3.25A3.26,3.26,0,0,0,0,18.125V32.75A3.26,3.26,0,0,0,3.25,36h26a3.26,3.26,0,0,0,3.25-3.25V18.125A3.26,3.26,0,0,0,29.25,14.875Zm-13,17.875a8.125,8.125,0,1,1,8.125-8.125A8.125,8.125,0,0,1,16.25,32.75ZM28.112,20.4A1.137,1.137,0,1,1,29.25,19.26,1.137,1.137,0,0,1,28.112,20.4Z" transform="translate(0 -10)" fill="#ffb808"/>
</svg>
