<svg xmlns="http://www.w3.org/2000/svg" width="44.735" height="45.017" viewBox="0 0 44.735 45.017">
  <g id="casa" transform="translate(-0.183)">
    <path id="Trazado_1593" data-name="Trazado 1593" d="M44.671,20.541,22.55,0,.429,20.541a.771.771,0,0,0,1.05,1.131l2.56-2.377V45.017H41.061V19.294l2.56,2.377a.771.771,0,0,0,1.051-1.13ZM39.518,43.474H5.581V17.862L22.55,2.1,39.518,17.862Z" transform="translate(0)" fill="#faad3d"/>
    <path id="Trazado_1594" data-name="Trazado 1594" d="M13.182,32.163h10.8v-10.8h-10.8v10.8Zm1.543-9.256h7.713v7.713H14.725V22.908Z" transform="translate(-2.973 -4.886)" fill="#faad3d"/>
    <path id="Trazado_1595" data-name="Trazado 1595" d="M41.98,21.365h-10.8v10.8h10.8Zm-1.543,9.256H32.725V22.908h7.713Z" transform="translate(-7.09 -4.886)" fill="#faad3d"/>
    <path id="Trazado_1596" data-name="Trazado 1596" d="M13.182,50.163h10.8v-10.8h-10.8v10.8Zm1.543-9.256h7.713v7.713H14.725V40.908Z" transform="translate(-2.973 -9.003)" fill="#faad3d"/>
    <path id="Trazado_1597" data-name="Trazado 1597" d="M41.98,39.365h-10.8v10.8h10.8Zm-1.543,9.256H32.725V40.908h7.713Z" transform="translate(-7.09 -9.003)" fill="#faad3d"/>
  </g>
</svg>
