<svg xmlns="http://www.w3.org/2000/svg" width="67.949" height="74.66" viewBox="0 0 67.949 74.66">
  <g id="horizonte" transform="translate(-23.011)">
    <g id="Grupo_320" data-name="Grupo 320" transform="translate(23.011)">
      <g id="Grupo_319" data-name="Grupo 319">
        <path id="Trazado_1645" data-name="Trazado 1645" d="M89.7,72.143H87.6V6.292a1.258,1.258,0,0,0-1.258-1.258H62.858A1.258,1.258,0,0,0,61.6,6.292v5.453H59.083V6.292a1.258,1.258,0,0,0-1.258-1.258H52.372V1.258a1.258,1.258,0,1,0-2.517,0V5.033H44.4a1.258,1.258,0,0,0-1.258,1.258v5.453H39.369A1.258,1.258,0,0,0,38.111,13V23.488H27.625a1.258,1.258,0,0,0-1.258,1.258v47.4h-2.1a1.258,1.258,0,0,0,0,2.517H89.7a1.258,1.258,0,1,0,0-2.517ZM45.661,7.55H56.566v4.194H45.661ZM41.466,72.143h-.839v-2.1a1.258,1.258,0,1,0-2.517,0v2.1h-.839V67.949h4.194Zm8.389-32.3v32.3H43.983V66.691a1.258,1.258,0,0,0-1.258-1.258H36.014a1.258,1.258,0,0,0-1.258,1.258v5.453H28.883V26.005H49.855V39.847Zm1.258-16.358H40.627V14.261H61.6V38.588H52.372V34.394h3.775a1.258,1.258,0,0,0,0-2.517H52.372V27.683h3.775a1.258,1.258,0,0,0,0-2.517H52.372v-.419A1.258,1.258,0,0,0,51.113,23.489Zm22.23,48.655H52.372V41.1H73.344Zm11.744,0H75.86V38.169a1.258,1.258,0,1,0-2.517,0v.419H70.827v-.419a1.258,1.258,0,1,0-2.517,0v.419H64.116V7.55H85.088V72.143Z" transform="translate(-23.011)" fill="#faad3d"/>
        <path id="Trazado_1646" data-name="Trazado 1646" d="M254.382,325.154a1.258,1.258,0,0,0,1.258-1.258V300.407a1.258,1.258,0,0,0-2.517,0V323.9A1.258,1.258,0,0,0,254.382,325.154Z" transform="translate(-219.569 -255.527)" fill="#faad3d"/>
        <path id="Trazado_1647" data-name="Trazado 1647" d="M288.9,325.154a1.258,1.258,0,0,0,1.258-1.258V300.407a1.258,1.258,0,0,0-2.517,0V323.9A1.258,1.258,0,0,0,288.9,325.154Z" transform="translate(-249.053 -255.527)" fill="#faad3d"/>
        <path id="Trazado_1648" data-name="Trazado 1648" d="M323.415,325.154a1.258,1.258,0,0,0,1.258-1.258V300.407a1.258,1.258,0,0,0-2.517,0V323.9A1.258,1.258,0,0,0,323.415,325.154Z" transform="translate(-278.536 -255.527)" fill="#faad3d"/>
        <path id="Trazado_1649" data-name="Trazado 1649" d="M334.921,84.734a1.258,1.258,0,0,0,1.258-1.258V81.8a1.258,1.258,0,1,0-2.517,0v1.678A1.258,1.258,0,0,0,334.921,84.734Z" transform="translate(-288.364 -68.796)" fill="#faad3d"/>
        <path id="Trazado_1650" data-name="Trazado 1650" d="M369.438,84.734a1.258,1.258,0,0,0,1.258-1.258V81.8a1.258,1.258,0,1,0-2.517,0v1.678A1.258,1.258,0,0,0,369.438,84.734Z" transform="translate(-317.847 -68.796)" fill="#faad3d"/>
        <path id="Trazado_1651" data-name="Trazado 1651" d="M403.955,84.734a1.258,1.258,0,0,0,1.258-1.258V81.8a1.258,1.258,0,0,0-2.517,0v1.678A1.258,1.258,0,0,0,403.955,84.734Z" transform="translate(-347.331 -68.796)" fill="#faad3d"/>
        <path id="Trazado_1652" data-name="Trazado 1652" d="M334.921,142.261A1.258,1.258,0,0,0,336.18,141v-1.678a1.258,1.258,0,0,0-2.517,0V141A1.258,1.258,0,0,0,334.921,142.261Z" transform="translate(-288.364 -117.934)" fill="#faad3d"/>
        <path id="Trazado_1653" data-name="Trazado 1653" d="M369.438,142.261A1.258,1.258,0,0,0,370.7,141v-1.678a1.258,1.258,0,1,0-2.517,0V141A1.258,1.258,0,0,0,369.438,142.261Z" transform="translate(-317.847 -117.934)" fill="#faad3d"/>
        <path id="Trazado_1654" data-name="Trazado 1654" d="M403.955,142.261A1.258,1.258,0,0,0,405.214,141v-1.678a1.258,1.258,0,0,0-2.517,0V141A1.258,1.258,0,0,0,403.955,142.261Z" transform="translate(-347.331 -117.934)" fill="#faad3d"/>
        <path id="Trazado_1655" data-name="Trazado 1655" d="M334.921,199.79a1.258,1.258,0,0,0,1.258-1.258v-1.678a1.258,1.258,0,1,0-2.517,0v1.678A1.258,1.258,0,0,0,334.921,199.79Z" transform="translate(-288.364 -167.074)" fill="#faad3d"/>
        <path id="Trazado_1656" data-name="Trazado 1656" d="M369.438,199.79a1.258,1.258,0,0,0,1.258-1.258v-1.678a1.258,1.258,0,1,0-2.517,0v1.678A1.258,1.258,0,0,0,369.438,199.79Z" transform="translate(-317.847 -167.074)" fill="#faad3d"/>
        <path id="Trazado_1657" data-name="Trazado 1657" d="M403.955,199.79a1.258,1.258,0,0,0,1.258-1.258v-1.678a1.258,1.258,0,0,0-2.517,0v1.678A1.258,1.258,0,0,0,403.955,199.79Z" transform="translate(-347.331 -167.074)" fill="#faad3d"/>
        <path id="Trazado_1658" data-name="Trazado 1658" d="M93.3,222.8a1.258,1.258,0,0,0,1.258-1.258v-1.678a1.258,1.258,0,0,0-2.517,0v1.678A1.258,1.258,0,0,0,93.3,222.8Z" transform="translate(-81.978 -186.73)" fill="#faad3d"/>
        <path id="Trazado_1659" data-name="Trazado 1659" d="M127.82,222.8a1.258,1.258,0,0,0,1.258-1.258v-1.678a1.258,1.258,0,0,0-2.517,0v1.678A1.258,1.258,0,0,0,127.82,222.8Z" transform="translate(-111.462 -186.73)" fill="#faad3d"/>
        <path id="Trazado_1660" data-name="Trazado 1660" d="M162.337,222.8a1.258,1.258,0,0,0,1.258-1.258v-1.678a1.258,1.258,0,0,0-2.517,0v1.678A1.258,1.258,0,0,0,162.337,222.8Z" transform="translate(-140.946 -186.73)" fill="#faad3d"/>
        <path id="Trazado_1661" data-name="Trazado 1661" d="M93.3,280.329a1.258,1.258,0,0,0,1.258-1.258v-1.678a1.258,1.258,0,0,0-2.517,0v1.678A1.258,1.258,0,0,0,93.3,280.329Z" transform="translate(-81.978 -235.869)" fill="#faad3d"/>
        <path id="Trazado_1662" data-name="Trazado 1662" d="M127.82,280.329a1.258,1.258,0,0,0,1.258-1.258v-1.678a1.258,1.258,0,0,0-2.517,0v1.678A1.258,1.258,0,0,0,127.82,280.329Z" transform="translate(-111.462 -235.869)" fill="#faad3d"/>
        <path id="Trazado_1663" data-name="Trazado 1663" d="M162.337,280.329a1.258,1.258,0,0,0,1.258-1.258v-1.678a1.258,1.258,0,0,0-2.517,0v1.678A1.258,1.258,0,0,0,162.337,280.329Z" transform="translate(-140.946 -235.869)" fill="#faad3d"/>
        <path id="Trazado_1664" data-name="Trazado 1664" d="M93.3,337.857a1.258,1.258,0,0,0,1.258-1.258v-1.678a1.258,1.258,0,0,0-2.517,0V336.6A1.258,1.258,0,0,0,93.3,337.857Z" transform="translate(-81.978 -285.008)" fill="#faad3d"/>
        <path id="Trazado_1665" data-name="Trazado 1665" d="M127.82,337.857a1.258,1.258,0,0,0,1.258-1.258v-1.678a1.258,1.258,0,0,0-2.517,0V336.6A1.258,1.258,0,0,0,127.82,337.857Z" transform="translate(-111.462 -285.008)" fill="#faad3d"/>
        <path id="Trazado_1666" data-name="Trazado 1666" d="M162.337,337.857A1.258,1.258,0,0,0,163.6,336.6v-1.678a1.258,1.258,0,0,0-2.517,0V336.6A1.258,1.258,0,0,0,162.337,337.857Z" transform="translate(-140.946 -285.008)" fill="#faad3d"/>
        <path id="Trazado_1667" data-name="Trazado 1667" d="M93.3,395.385a1.258,1.258,0,0,0,1.258-1.258v-1.678a1.258,1.258,0,0,0-2.517,0v1.678A1.258,1.258,0,0,0,93.3,395.385Z" transform="translate(-81.978 -334.147)" fill="#faad3d"/>
        <path id="Trazado_1668" data-name="Trazado 1668" d="M127.82,395.385a1.258,1.258,0,0,0,1.258-1.258v-1.678a1.258,1.258,0,0,0-2.517,0v1.678A1.258,1.258,0,0,0,127.82,395.385Z" transform="translate(-111.462 -334.147)" fill="#faad3d"/>
        <path id="Trazado_1669" data-name="Trazado 1669" d="M162.337,395.385a1.258,1.258,0,0,0,1.258-1.258v-1.678a1.258,1.258,0,0,0-2.517,0v1.678A1.258,1.258,0,0,0,162.337,395.385Z" transform="translate(-140.946 -334.147)" fill="#faad3d"/>
        <path id="Trazado_1670" data-name="Trazado 1670" d="M403.955,257.318a1.258,1.258,0,0,0,1.258-1.258v-1.678a1.258,1.258,0,0,0-2.517,0v1.678A1.258,1.258,0,0,0,403.955,257.318Z" transform="translate(-347.331 -216.213)" fill="#faad3d"/>
        <path id="Trazado_1671" data-name="Trazado 1671" d="M403.955,314.846a1.258,1.258,0,0,0,1.258-1.258V311.91a1.258,1.258,0,0,0-2.517,0v1.678A1.258,1.258,0,0,0,403.955,314.846Z" transform="translate(-347.331 -265.353)" fill="#faad3d"/>
        <path id="Trazado_1672" data-name="Trazado 1672" d="M403.955,372.374a1.258,1.258,0,0,0,1.258-1.258v-1.678a1.258,1.258,0,0,0-2.517,0v1.678A1.258,1.258,0,0,0,403.955,372.374Z" transform="translate(-347.331 -314.492)" fill="#faad3d"/>
        <path id="Trazado_1673" data-name="Trazado 1673" d="M403.955,429.9a1.258,1.258,0,0,0,1.258-1.258v-1.678a1.258,1.258,0,0,0-2.517,0v1.678A1.258,1.258,0,0,0,403.955,429.9Z" transform="translate(-347.331 -363.631)" fill="#faad3d"/>
        <path id="Trazado_1674" data-name="Trazado 1674" d="M185.167,127.82a1.258,1.258,0,0,0-1.258-1.258H173.842a1.258,1.258,0,1,0,0,2.517h10.067A1.258,1.258,0,0,0,185.167,127.82Z" transform="translate(-150.773 -108.107)" fill="#faad3d"/>
      </g>
    </g>
  </g>
</svg>
