<svg xmlns="http://www.w3.org/2000/svg" xmlns:xlink="http://www.w3.org/1999/xlink" width="288.11" height="105.989" viewBox="0 0 288.11 105.989">
  <defs>
    <radialGradient id="radial-gradient" cx="94.412" cy="142.769" r="52.461" gradientTransform="translate(-0.375 -0.398) scale(1.007 1.007)" gradientUnits="userSpaceOnUse">
      <stop offset="0" stop-color="#5c5c5c"/>
      <stop offset="0.503" stop-color="#5a5a5a"/>
      <stop offset="0.685" stop-color="#535353"/>
      <stop offset="0.814" stop-color="#474747"/>
      <stop offset="0.918" stop-color="#363636"/>
      <stop offset="1" stop-color="#232323"/>
    </radialGradient>
  </defs>
  <g id="Logo" transform="translate(-39.12 -84.07)">
    <g id="Grupo_1" data-name="Grupo 1" transform="translate(39.12 84.07)">
      <path id="Trazado_1" data-name="Trazado 1" d="M144.075,130.907a14.3,14.3,0,0,1-10.822-4.166,13.024,13.024,0,0,1-2.007-2.515,14.189,14.189,0,0,1-1.3-2.566c-.025-.051-.025-.076-.051-.127a15.3,15.3,0,0,1-.686-2.565,14.588,14.588,0,0,1,.407-6.554,14.4,14.4,0,0,1,5.081-7.291c-.025,0-.025-.025-.051-.051A54.834,54.834,0,0,0,124.9,94.53a9.882,9.882,0,0,1-.711.736,14.09,14.09,0,0,1-5.055,3.176,14.028,14.028,0,0,1-20.323-13.9,52.812,52.812,0,0,0-14.15,0A14.043,14.043,0,0,1,79.22,97.07,13.44,13.44,0,0,1,76.045,98.9a14.058,14.058,0,0,1-16.233-4.064,54.611,54.611,0,0,0-9.983,9.983A14.065,14.065,0,0,1,39.54,129.689a61.234,61.234,0,0,0,.153,15.521,14.075,14.075,0,0,1,9.6,3.073,14.389,14.389,0,0,1,3.785,4.649c.127.305.28.61.407.914.025.076.051.153.075.229a7.962,7.962,0,0,1,.381,1.092,13.958,13.958,0,0,1,.407,6.529,14.128,14.128,0,0,1-4.319,7.875,60.161,60.161,0,0,0,9.831,9.7A14.065,14.065,0,0,1,84.707,189.59c.127,0,.28.05.407.05a52.408,52.408,0,0,0,13.235,0,13.827,13.827,0,0,1,1.956-7.773v-.025a13.527,13.527,0,0,1,5.055-5.512,11.6,11.6,0,0,1,2.083-1.093,14.116,14.116,0,0,1,15.877,3.607c.127.153.254.305.381.432a52.538,52.538,0,0,0,9.755-9.679l.229-.305a14.249,14.249,0,0,1-3.76-4.776c0-.025-.025-.051-.025-.076a13.955,13.955,0,0,1-.636-10.39c.1-.33.229-.66.356-.991a13.655,13.655,0,0,1,3.48-4.954,13.941,13.941,0,0,1,10.72-3.658,48.343,48.343,0,0,0,.559-5.385A66.519,66.519,0,0,0,144.075,130.907Zm-52.333,40.85a34.689,34.689,0,1,1,34.7-34.7A34.71,34.71,0,0,1,91.742,171.758Z" transform="translate(-39.12 -84.07)" fill-rule="evenodd" fill="url(#radial-gradient)"/>
    </g>
    <path id="Unión_1" data-name="Unión 1" d="M10.273,45.062,9.54,41.448a1.571,1.571,0,1,1-.859-3.022l27.6-7.4a1.571,1.571,0,0,1,.814,3.035L12.573,40.635l.772,3.806a.712.712,0,0,0,.866.508l30.593-8.2a.7.7,0,0,0,.5-.863l-9.613-28.7c-.168-.408-.342-.849-.929-.691L29.483,7.915l.985,3.678a1.57,1.57,0,1,1-3.033.813l-.986-3.677L16.1,11.5l.985,3.679a1.57,1.57,0,1,1-3.034.812l-.985-3.677L7.785,13.729a.719.719,0,0,0-.481.953l1.738,8.557a1.57,1.57,0,0,1,.164,3.069l-3.073.824A1.571,1.571,0,1,1,5.321,24.1l.661-.178L4.252,15.4a3.887,3.887,0,0,1,2.719-4.709l5.4-1.447A8.5,8.5,0,0,1,28.546,4.914l5.4-1.447c2.053-.55,3.876.394,4.712,2.727l9.647,28.793a3.848,3.848,0,0,1-2.688,4.8l-30.593,8.2a3.581,3.581,0,0,1-.928.12A3.807,3.807,0,0,1,10.273,45.062Zm9.179-41.74a5.386,5.386,0,0,0-3.971,5.093l9.957-2.668a5.4,5.4,0,0,0-4.612-2.606A5.3,5.3,0,0,0,19.452,3.322ZM.054,42.364a1.571,1.571,0,0,1,1.11-1.923L3.5,39.815a1.57,1.57,0,1,1,.812,3.033l-2.333.625a1.567,1.567,0,0,1-1.923-1.11ZM5.419,32.8a1.57,1.57,0,0,1,1.11-1.923L29.605,24.7a1.57,1.57,0,0,1,.813,3.034L7.342,33.914A1.569,1.569,0,0,1,5.419,32.8ZM11.748,24a1.57,1.57,0,0,1,1.11-1.923l9.434-2.528a1.57,1.57,0,0,1,.813,3.034l-9.434,2.528A1.568,1.568,0,0,1,11.748,24Z" transform="translate(67.525 110.861)" fill="#ffb808"/>
    <g id="Grupo_2" data-name="Grupo 2" transform="translate(163.695 153.109)">
      <path id="Trazado_6" data-name="Trazado 6" d="M206.228,183.5l-.065-10.257-4.887,8.231h-3.345l-4.887-7.878v9.9h-6.913V160.991h6.238l7.331,11.993,7.137-11.993h6.238l.064,22.507Z" transform="translate(-186.132 -160.991)" fill="#032b3f"/>
      <path id="Trazado_7" data-name="Trazado 7" d="M241.4,179.576h-8.553l-1.512,3.923h-7.715l9.838-22.507h7.459l9.84,22.507h-7.846Zm-2.09-5.466-2.186-5.659-2.187,5.659Z" transform="translate(-191.854 -160.991)" fill="#032b3f"/>
      <path id="Trazado_8" data-name="Trazado 8" d="M270.911,177.839h-2.058V183.5h-7.588V160.991H272.1a13.289,13.289,0,0,1,5.434,1.03,8.32,8.32,0,0,1,3.729,11.671,7.738,7.738,0,0,1-3.151,2.862l4.727,6.944h-8.1Zm3.022-10.3a3.378,3.378,0,0,0-2.316-.691h-2.765v5.273h2.765a3.378,3.378,0,0,0,2.316-.691,2.839,2.839,0,0,0,0-3.89Z" transform="translate(-197.599 -160.991)" fill="#032b3f"/>
      <path id="Trazado_9" data-name="Trazado 9" d="M302.869,176.039l-1.7,1.9V183.5H293.7V160.991h7.46v8.167l7.4-8.167h8.264l-9,9.9,9.453,12.6H308.5Z" transform="translate(-202.55 -160.991)" fill="#032b3f"/>
      <path id="Trazado_10" data-name="Trazado 10" d="M345.621,177.775V183.5H326.907V160.991H345.2v5.723H334.366v2.637h9.518v5.466h-9.518v2.958Z" transform="translate(-207.617 -160.991)" fill="#032b3f"/>
      <path id="Trazado_11" data-name="Trazado 11" d="M361.2,166.875h-6.591v-5.884H375.38v5.884h-6.593V183.5H361.2Z" transform="translate(-211.845 -160.991)" fill="#032b3f"/>
    </g>
    <g id="Grupo_3" data-name="Grupo 3" transform="translate(158.58 98.78)">
      <path id="Trazado_12" data-name="Trazado 12" d="M199.242,141.214h-8.4V108.608H180.1v-6.987h29.9v6.987H199.243Z" transform="translate(-180.096 -101.458)" fill="#ffb808"/>
      <path id="Trazado_13" data-name="Trazado 13" d="M245.372,141.214h-22.8l0-39.593h22.8V108.5H230.966v8.692H244.37v6.878H230.965v10.21h14.407Z" transform="translate(-186.578 -101.458)" fill="#ffb808"/>
      <path id="Trazado_14" data-name="Trazado 14" d="M259.227,141.214V101.621h8.395v32.66h16.059v6.932Z" transform="translate(-192.173 -101.458)" fill="#ffb808"/>
      <path id="Trazado_15" data-name="Trazado 15" d="M296.2,141.214l0-39.593h8.4v32.66h16.06v6.932Z" transform="translate(-197.816 -101.458)" fill="#ffb808"/>
      <path id="Trazado_16" data-name="Trazado 16" d="M360.315,141.185l-2.87-9.425H343.011l-2.871,9.424h-9.046l13.976-39.756h10.264l14.027,39.756Zm-4.874-16.466q-3.98-12.81-4.482-14.488t-.717-2.654q-.895,3.466-5.119,17.142Z" transform="translate(-203.142 -101.429)" fill="#ffb808"/>
    </g>
  </g>
</svg>
